<svg width="640" height="480" xmlns="http://www.w3.org/2000/svg" xmlns:svg="http://www.w3.org/2000/svg">
 <!-- Created with SVG-edit - http://svg-edit.googlecode.com/ -->

 <g display="inline">
  <title>Layer 1</title>
  <path id="svg_20" d="m83.555573,16l480,0l0,440.888885l-480,0l0,-440.888885z" opacity="0.25" stroke-linecap="null" stroke-linejoin="null" stroke-dasharray="null" stroke-width="0" stroke="#4c4c4c" fill="#7f7f00"/>
  <path stroke="#4c4c4c" id="svg_11" d="m215.274023,119.625453l107.954912,-102.553786l107.972739,102.553786l-107.972739,102.553963l-107.954912,-102.553963zm-121.563595,116.148873l107.97277,-102.553757l107.954958,102.553757l-107.954958,102.570943l-107.97277,-102.570943zm245.423139,2.094633l107.972956,-102.537117l107.937224,102.537117l-107.937224,102.570618l-107.972956,-102.570618zm-121.5285,116.165749l107.937287,-102.553919l107.973127,102.553919l-107.973127,102.554553l-107.937287,-102.554553z" opacity="0.25" stroke-linecap="null" stroke-linejoin="null" stroke-dasharray="null" stroke-width="0" fill="#d4aaff"/>
  <path id="svg_15" d="m32.378559,9.251156c-0.245923,-0.268579 0.038565,-0.681354 -0.011791,-1.011175c0.021102,-0.313993 0.019615,-0.628833 0.027217,-0.943306c-0.156888,-0.084473 -0.310749,-0.273665 -0.484969,-0.255213c-0.261961,0.342597 -0.233118,0.79825 -0.440492,1.167198c-0.115678,0.35367 -0.39589,0.700783 -0.807263,0.646792c-0.439989,0.006816 -0.148086,-0.353494 0.10988,-0.404629c0.43222,-0.208331 0.403934,-0.756728 0.480672,-1.159506c0.028666,-0.283938 0.090393,-0.573255 0.098871,-0.854044c-0.179935,-0.39906 -0.440162,-0.79095 -0.381225,-1.250413c-0.02538,-0.495921 0.119232,-1.038143 -0.141629,-1.492398c-0.155264,-0.435299 0.107927,-0.880707 0.081961,-1.325006c0.027101,-0.412126 -0.14511,-0.851656 0.033611,-1.243706c0.384062,-0.432995 0.361855,0.370783 0.528332,0.572744c0.157483,0.429576 0.689961,0.300124 0.98987,0.118436c0.200788,-0.114517 0.470538,-0.789747 0.68146,-0.39932c0.094229,0.396596 -0.171201,0.707582 -0.340857,1.028303c-0.19141,0.6138 0.163609,1.229037 0.583609,1.657163c0.69244,0.75216 1.228768,1.663837 1.507907,2.64948c0.036609,0.409279 0.111106,0.78717 0.357607,1.120337c0.284485,0.283565 0.729438,0.270072 1.096427,0.369659c0.25707,0.0704 0.857327,0.143475 0.73807,0.484554c-0.411057,0.06883 -0.83902,0.006441 -1.251771,-0.036881c-0.481836,-0.076109 -0.976006,-0.203227 -1.36875,-0.506268c-0.407838,-0.268033 -0.523325,0.557851 -0.948341,0.297012c-0.061155,-0.214759 0.297313,-0.550399 -0.182309,-0.537026c-0.176501,0.008609 -0.418274,0.050746 -0.550949,0.136373c0.029956,0.339032 0.057099,0.679213 0.11958,1.013867c-0.049698,0.167498 -0.394662,0.360487 -0.524727,0.156973z" opacity="0.25" stroke-linecap="null" stroke-linejoin="null" stroke-dasharray="null" stroke-width="0" stroke="#4c4c4c" fill="#ff0000"/>
  <path stroke="#4c4c4c" id="svg_16" d="m321.900326,432.299729c-1.956561,-2.147131 0.306823,-5.447025 -0.093807,-8.083753c0.167889,-2.510188 0.156053,-5.027149 0.216539,-7.541179c-1.248193,-0.675316 -2.472308,-2.187794 -3.858405,-2.040279c-2.084157,2.738861 -1.854682,6.381543 -3.504546,9.331066c-0.920334,2.827384 -3.149694,5.602352 -6.422566,5.170719c-3.500543,0.054488 -1.178166,-2.825975 0.874206,-3.23477c3.438731,-1.665486 3.21369,-6.049599 3.824216,-9.269568c0.228066,-2.269919 0.719162,-4.582839 0.786614,-6.827582c-1.431555,-3.190253 -3.50192,-6.323179 -3.033015,-9.996319c-0.201922,-3.964601 0.948603,-8.299341 -1.126797,-11.930846c-1.235276,-3.47996 0.858662,-7.040738 0.652076,-10.592646c0.215614,-3.294707 -1.154491,-6.808493 0.267409,-9.942695c3.05559,-3.461537 2.878911,2.964192 4.203396,4.578749c1.252929,3.434208 5.489313,2.399317 7.875385,0.946825c1.597463,-0.915496 3.743591,-6.313566 5.421681,-3.192333c0.749684,3.170553 -1.362071,5.656704 -2.711854,8.220682c-1.522851,4.906971 1.30167,9.825426 4.643178,13.248047c5.509038,6.013079 9.776049,13.301396 11.996876,21.181038c0.291262,3.271943 0.883959,6.292966 2.845113,8.956437c2.263353,2.266937 5.80339,2.159064 8.723148,2.955208c2.045239,0.562803 6.820871,1.146995 5.872066,3.873722c-3.270356,0.550253 -6.675225,0.051495 -9.959065,-0.294842c-3.833474,-0.608447 -7.765083,-1.624682 -10.889742,-4.047318c-3.244752,-2.142767 -4.163558,4.45969 -7.544977,2.37444c-0.486549,-1.716871 2.365417,-4.400118 -1.450448,-4.293208c-1.404238,0.068821 -3.327781,0.405683 -4.383339,1.090222c0.238331,2.710362 0.454277,5.429906 0.951376,8.105274c-0.3954,1.339045 -3.139926,2.881883 -4.174719,1.254908z" opacity="0.25" stroke-linecap="null" stroke-linejoin="null" stroke-dasharray="null" stroke-width="0" fill="#7f003f"/>
  <path id="svg_18" d="m294.031007,115.982993c3.432083,-2.674887 10.912626,1.653916 10.644385,-5.32219c3.39964,-2.395575 6.018006,-7.645632 0.520969,-9.403114c-3.132464,-1.502616 -4.602734,3.323199 -5.69295,3.627489c-2.262423,-3.152491 -0.985873,-8.291134 -0.095384,-11.621785c2.84547,-1.770252 7.511151,-3.790483 4.21848,-7.734869c-0.682206,-4.305372 -1.099812,-9.327629 -5.166436,-11.930002c-3.035056,-1.822942 -7.320599,-3.560842 -5.831172,-7.84027c-1.959445,-2.955511 -4.22837,-6.995964 -2.927636,-10.645104c2.966658,-0.525734 2.618273,6.971908 3.183819,5.387537c-1.114324,-2.410838 2.66356,-7.9617 2.447408,-2.843733c-0.228044,1.836018 -0.080357,5.556115 0.928322,1.871462c2.734454,-4.062243 0.052545,7.041837 2.736578,2.635222c1.893461,-0.612923 1.316515,2.713685 3.143948,1.068868c2.000614,1.528391 3.465706,1.870118 3.458916,4.410082c2.665934,0.963755 4.654808,2.557952 4.126659,5.091851c5.202832,-1.255359 0.754793,5.233572 4.457752,7.043084c1.996035,3.164336 2.893288,6.334571 2.749446,10.092461c4.108453,-1.135411 6.81804,-5.808145 11.061163,-7.262041c4.763831,-2.20772 6.470652,-7.696213 7.505292,-12.436997c0.46194,-2.287407 3.361616,-2.175414 2.470879,0.394045c3.336795,-3.596155 1.944107,-8.831831 2.886409,-13.205016c0.302117,-2.446043 -0.67841,-7.83831 1.381128,-8.341849c3.072946,2.758307 -0.682531,8.856294 2.312921,10.686674c2.111624,-3.940043 1.363152,-8.652728 1.477507,-12.952995c-0.051614,-2.4822 2.411367,-4.125406 2.2923,-0.582287c1.032915,3.058318 -0.117784,9.372204 0.479835,10.485217c2.347972,-3.630261 1.846082,-8.519082 4.335607,-11.929255c3.425189,1.284823 -0.970756,7.050703 -0.859531,10.105105c0.459133,2.345677 3.816153,-6.86945 3.985188,-1.788874c-1.546667,1.342775 -1.287848,5.039978 0.440293,2.061883c0.66751,-2.445677 5.233441,-1.625625 2.286773,0.606596c-2.188114,1.900486 3.838988,1.766863 1.200426,3.856231c1.7604,2.90744 -3.029224,4.626804 -0.288594,6.722473c-0.15763,0.844044 2.187431,2.487142 1.150865,4.513811c1.033377,1.866325 -3.679051,3.078043 -0.604127,4.354921c0.177861,4.352385 -5.322681,7.353739 -4.117372,11.417192c-0.355296,4.897009 -4.050192,9.006509 -8.004422,11.594745c-3.653046,0.692712 -6.486671,2.159875 -9.626631,4.184217c-2.067581,0.03554 -2.801593,0.025862 -3.882818,1.518132c-1.701789,-1.320168 -4.507946,-3.315188 -4.027,0.682939c0.728308,4.96518 7.02758,5.458771 10.378053,8.100192c3.57349,1.261331 8.247292,5.453739 4.377319,8.735731c-0.374431,4.665326 -6.582578,1.870982 -8.194918,3.484971c-2.313328,0.345831 -2.072314,1.978731 -4.127512,0.03161c-2.001638,2.68261 -6.479126,-0.221092 -8.613889,-1.384555c-3.462689,1.652197 -5.045801,-6.652219 -5.682519,-0.839219c-1.406642,3.951114 -7.119659,-0.295197 -7.091569,4.756724c-2.613781,-0.537061 -2.73679,3.548139 -5.540239,3.137764c1.763256,-0.818703 2.962585,-5.500303 -0.202711,-3.243346c-2.588681,-1.966461 -1.093832,4.83905 -3.228368,1.295588c-0.469535,-4.600392 4.755171,-4.691177 7.699358,-5.517614c1.057367,-2.673724 2.396046,-6.188615 2.115545,-8.767106c-2.782962,1.118641 -5.223479,3.516762 -8.470283,3.720453c0.202117,2.430088 -1.680663,6.356693 -4.575495,4.095727c4.161819,1.622585 2.322898,-7.287985 -0.192163,-2.884751c-0.985899,2.905139 -0.863743,-4.197155 -3.71522,-2.129804c-1.494535,1.087008 -0.479835,3.604096 -1.964585,0.684265c-0.288769,-0.588669 -0.333975,-1.424607 0.269998,-1.848491l0,0.000006z" opacity="0.25" stroke-linecap="null" stroke-linejoin="null" stroke-dasharray="null" stroke-width="0" stroke="#4c4c4c" fill="#7f003f"/>
 </g>
</svg>
