<?xml version="1.0" encoding="UTF-8" standalone="no"?>
<!-- Created with Inkscape (http://www.inkscape.org/) -->

<svg
   xmlns:dc="http://purl.org/dc/elements/1.1/"
   xmlns:cc="http://creativecommons.org/ns#"
   xmlns:rdf="http://www.w3.org/1999/02/22-rdf-syntax-ns#"
   xmlns:svg="http://www.w3.org/2000/svg"
   xmlns="http://www.w3.org/2000/svg"
   xmlns:sodipodi="http://sodipodi.sourceforge.net/DTD/sodipodi-0.dtd"
   xmlns:inkscape="http://www.inkscape.org/namespaces/inkscape"
   width="210mm"
   height="297mm"
   viewBox="0 0 210 297"
   version="1.1"
   id="svg8"
   inkscape:version="0.92.1 r15371"
   sodipodi:docname="logo2.svg">
  <defs
     id="defs2" />
  <sodipodi:namedview
     id="base"
     pagecolor="#ffffff"
     bordercolor="#666666"
     borderopacity="1.0"
     inkscape:pageopacity="0.0"
     inkscape:pageshadow="2"
     inkscape:zoom="0.35"
     inkscape:cx="400"
     inkscape:cy="560"
     inkscape:document-units="mm"
     inkscape:current-layer="layer1"
     showgrid="false"
     showguides="false"
     inkscape:window-width="1366"
     inkscape:window-height="705"
     inkscape:window-x="-8"
     inkscape:window-y="-8"
     inkscape:window-maximized="1" />
  <metadata
     id="metadata5">
    <rdf:RDF>
      <cc:Work
         rdf:about="">
        <dc:format>image/svg+xml</dc:format>
        <dc:type
           rdf:resource="http://purl.org/dc/dcmitype/StillImage" />
        <dc:title></dc:title>
      </cc:Work>
    </rdf:RDF>
  </metadata>
  <g
     inkscape:label="Capa 1"
     inkscape:groupmode="layer"
     id="layer1">
    <g
       id="g4605"
       display="inline"
       transform="matrix(0.42193641,0.00487341,-0.00489694,0.43583153,-30.498602,-5.6760127)"
       style="display:inline">
      <title
         id="title4598">Layer 1</title>
      <path
         stroke-linejoin="null"
         stroke-linecap="null"
         d="M 83.555573,16 H 563.55557 V 456.88889 H 83.555573 Z"
         id="svg_20"
         inkscape:connector-curvature="0"
         style="opacity:0.25;fill:#7f7f00;stroke:#4c4c4c;stroke-width:0;stroke-dasharray:none" />
      <path
         stroke-linejoin="null"
         stroke-linecap="null"
         d="M 215.27402,119.62545 323.22893,17.071667 431.20167,119.62545 323.22893,222.17942 Z M 93.710428,235.77433 201.6832,133.22057 309.63816,235.77433 201.6832,338.34527 Z M 339.13357,237.86896 447.10652,135.33184 555.04375,237.86896 447.10652,340.43958 Z M 217.60507,354.03471 325.54235,251.48079 433.51548,354.03471 325.54235,456.58926 Z"
         id="svg_11"
         inkscape:connector-curvature="0"
         style="opacity:0.25;fill:#d4aaff;stroke:#4c4c4c;stroke-width:0;stroke-dasharray:none" />
      <path
         stroke-linejoin="null"
         stroke-linecap="null"
         d="m 32.378559,9.251156 c -0.245923,-0.268579 0.03856,-0.681354 -0.01179,-1.011175 0.0211,-0.313993 0.01962,-0.628833 0.02722,-0.943306 C 32.237101,7.212202 32.08324,7.02301 31.90902,7.041462 c -0.261961,0.342597 -0.233118,0.79825 -0.440492,1.167198 -0.115678,0.35367 -0.39589,0.700783 -0.807263,0.646792 -0.439989,0.00682 -0.148086,-0.353494 0.10988,-0.404629 0.43222,-0.208331 0.403934,-0.756728 0.480672,-1.159506 0.02867,-0.283938 0.09039,-0.573255 0.09887,-0.854044 C 31.170749,6.038213 30.910522,5.646323 30.969459,5.18686 30.944079,4.690939 31.088691,4.148717 30.82783,3.694462 30.672566,3.259163 30.935757,2.813755 30.909791,2.369456 30.936892,1.95733 30.764681,1.5178 30.943402,1.12575 c 0.384062,-0.432995 0.361855,0.370783 0.528332,0.572744 0.157483,0.429576 0.689961,0.300124 0.98987,0.118436 0.200788,-0.114517 0.470538,-0.789747 0.68146,-0.39932 0.09423,0.396596 -0.171201,0.707582 -0.340857,1.028303 -0.19141,0.6138 0.163609,1.229037 0.583609,1.657163 0.69244,0.75216 1.228768,1.663837 1.507907,2.64948 0.03661,0.409279 0.111106,0.78717 0.357607,1.120337 0.284485,0.283565 0.729438,0.270072 1.096427,0.369659 0.25707,0.0704 0.857327,0.143475 0.73807,0.484554 -0.411057,0.06883 -0.83902,0.00644 -1.251771,-0.036881 C 35.35222,8.614116 34.85805,8.486998 34.465306,8.183957 34.057468,7.915924 33.941981,8.741808 33.516965,8.480969 33.45581,8.26621 33.814278,7.93057 33.334656,7.943943 c -0.176501,0.00861 -0.418274,0.050746 -0.550949,0.136373 0.02996,0.339032 0.0571,0.679213 0.11958,1.013867 -0.0497,0.167498 -0.394662,0.360487 -0.524728,0.156973 z"
         id="svg_15"
         inkscape:connector-curvature="0"
         style="opacity:0.25;fill:#ff0000;stroke:#4c4c4c;stroke-width:0;stroke-dasharray:none" />
      <path
         stroke-linejoin="null"
         stroke-linecap="null"
         d="m 321.90033,432.29973 c -1.95657,-2.14713 0.30682,-5.44703 -0.0938,-8.08375 0.16789,-2.51019 0.15605,-5.02715 0.21654,-7.54118 -1.2482,-0.67532 -2.47231,-2.1878 -3.85841,-2.04028 -2.08415,2.73886 -1.85468,6.38154 -3.50454,9.33106 -0.92034,2.82739 -3.1497,5.60236 -6.42257,5.17072 -3.50054,0.0545 -1.17817,-2.82597 0.87421,-3.23477 3.43873,-1.66548 3.21369,-6.0496 3.82421,-9.26956 0.22807,-2.26992 0.71916,-4.58284 0.78662,-6.82759 -1.43156,-3.19025 -3.50192,-6.32318 -3.03302,-9.99632 -0.20192,-3.9646 0.9486,-8.29934 -1.1268,-11.93084 -1.23527,-3.47996 0.85867,-7.04074 0.65208,-10.59265 0.21561,-3.2947 -1.15449,-6.80849 0.26741,-9.94269 3.05559,-3.46154 2.87891,2.96419 4.2034,4.57875 1.25292,3.4342 5.48931,2.39931 7.87538,0.94682 1.59746,-0.91549 3.74359,-6.31356 5.42168,-3.19233 0.74969,3.17055 -1.36207,5.6567 -2.71185,8.22068 -1.52285,4.90697 1.30167,9.82543 4.64318,13.24805 5.50903,6.01308 9.77604,13.30139 11.99687,21.18104 0.29126,3.27194 0.88396,6.29296 2.84511,8.95643 2.26336,2.26694 5.80339,2.15907 8.72315,2.95521 2.04524,0.5628 6.82087,1.147 5.87207,3.87372 -3.27036,0.55026 -6.67523,0.0515 -9.95907,-0.29484 -3.83347,-0.60845 -7.76508,-1.62468 -10.88974,-4.04732 -3.24475,-2.14276 -4.16356,4.45969 -7.54498,2.37444 -0.48654,-1.71687 2.36542,-4.40012 -1.45044,-4.29321 -1.40424,0.0688 -3.32778,0.40569 -4.38334,1.09023 0.23833,2.71036 0.45427,5.4299 0.95137,8.10527 -0.3954,1.33905 -3.13992,2.88188 -4.17472,1.25491 z"
         id="svg_16"
         inkscape:connector-curvature="0"
         style="opacity:0.25;fill:#7f003f;stroke:#4c4c4c;stroke-width:0;stroke-dasharray:none" />
      <path
         stroke-linejoin="null"
         stroke-linecap="null"
         d="m 294.03101,115.98299 c 3.43208,-2.67488 10.91262,1.65392 10.64438,-5.32219 3.39964,-2.39557 6.01801,-7.64563 0.52097,-9.40311 -3.13246,-1.502617 -4.60273,3.3232 -5.69295,3.62749 -2.26242,-3.15249 -0.98587,-8.291136 -0.0954,-11.621787 2.84547,-1.770252 7.51115,-3.790483 4.21848,-7.734869 -0.68221,-4.305372 -1.09982,-9.327629 -5.16644,-11.930002 -3.03506,-1.822942 -7.3206,-3.560842 -5.83117,-7.84027 -1.95945,-2.955511 -4.22837,-6.995964 -2.92764,-10.645104 2.96666,-0.525734 2.61828,6.971908 3.18382,5.387537 -1.11432,-2.410838 2.66356,-7.9617 2.44741,-2.843733 -0.22804,1.836018 -0.0804,5.556115 0.92832,1.871462 2.73446,-4.062243 0.0525,7.041837 2.73658,2.635222 1.89346,-0.612923 1.31651,2.713685 3.14395,1.068868 2.00061,1.528391 3.4657,1.870118 3.45891,4.410082 2.66594,0.963755 4.65481,2.557952 4.12666,5.091851 5.20284,-1.255359 0.7548,5.233572 4.45776,7.043084 1.99603,3.164336 2.89328,6.334571 2.74944,10.092461 4.10845,-1.135411 6.81804,-5.808145 11.06116,-7.262041 4.76384,-2.20772 6.47066,-7.696213 7.5053,-12.436997 0.46194,-2.287407 3.36161,-2.175414 2.47088,0.394045 3.33679,-3.596155 1.9441,-8.831831 2.8864,-13.205016 0.30212,-2.446043 -0.67841,-7.83831 1.38113,-8.341849 3.07295,2.758307 -0.68253,8.856294 2.31292,10.686674 2.11163,-3.940043 1.36316,-8.652728 1.47751,-12.952995 -0.0516,-2.4822 2.41137,-4.125406 2.2923,-0.582287 1.03292,3.058318 -0.11778,9.372204 0.47984,10.485217 2.34797,-3.630261 1.84608,-8.519082 4.3356,-11.929255 3.42519,1.284823 -0.97075,7.050703 -0.85953,10.105105 0.45913,2.345677 3.81615,-6.86945 3.98519,-1.788874 -1.54667,1.342775 -1.28785,5.039978 0.44029,2.061883 0.66751,-2.445677 5.23344,-1.625625 2.28678,0.606596 -2.18812,1.900486 3.83898,1.766863 1.20042,3.856231 1.7604,2.90744 -3.02922,4.626804 -0.28859,6.722473 -0.15763,0.844044 2.18743,2.487142 1.15086,4.513811 1.03338,1.866325 -3.67905,3.078043 -0.60412,4.354921 0.17786,4.352385 -5.32269,7.353739 -4.11738,11.417192 -0.35529,4.897009 -4.05019,9.006509 -8.00442,11.594745 -3.65304,0.692712 -6.48667,2.159879 -9.62663,4.184219 -2.06758,0.0355 -2.80159,0.0259 -3.88282,1.51813 -1.70179,-1.32017 -4.50794,-3.31519 -4.027,0.68294 0.72831,4.96518 7.02758,5.45877 10.37806,8.10019 3.57349,1.26133 8.24729,5.45374 4.37731,8.73573 -0.37443,4.66533 -6.58257,1.87098 -8.19491,3.48497 -2.31333,0.34583 -2.07232,1.97873 -4.12752,0.0316 -2.00163,2.68261 -6.47912,-0.22109 -8.61388,-1.38455 -3.46269,1.6522 -5.04581,-6.65222 -5.68252,-0.83922 -1.40665,3.95111 -7.11966,-0.2952 -7.09157,4.75672 -2.61378,-0.53706 -2.73679,3.54814 -5.54024,3.13777 1.76325,-0.81871 2.96258,-5.50031 -0.20271,-3.24335 -2.58868,-1.96646 -1.09383,4.83905 -3.22837,1.29559 -0.46954,-4.60039 4.75517,-4.69118 7.69936,-5.51761 1.05736,-2.67373 2.39604,-6.18862 2.11554,-8.76711 -2.78296,1.11864 -5.22348,3.51676 -8.47028,3.72045 0.20212,2.43009 -1.68066,6.3567 -4.5755,4.09573 4.16182,1.62258 2.3229,-7.28799 -0.19216,-2.88475 -0.9859,2.90514 -0.86374,-4.19716 -3.71522,-2.12981 -1.49453,1.08701 -0.47983,3.6041 -1.96458,0.68427 -0.28877,-0.58867 -0.33398,-1.42461 0.26999,-1.84849 v 0 z"
         id="svg_18"
         inkscape:connector-curvature="0"
         style="opacity:0.25;fill:#7f003f;stroke:#4c4c4c;stroke-width:0;stroke-dasharray:none" />
    </g>
    <g
       aria-label="kF"
       transform="matrix(3.4690316,0,0,2.4456213,-438.97227,-1968.3366)"
       style="font-style:normal;font-variant:normal;font-weight:normal;font-stretch:normal;font-size:40px;line-height:1.25;font-family:Harrington;-inkscape-font-specification:Harrington;letter-spacing:0px;word-spacing:0px;fill:#6600ff;fill-opacity:1;stroke:none"
       id="flowRoot4626">
      <path
         d="m 157.15963,846.3783 q 0,0.625 -0.50781,1.07422 -0.50781,0.44922 -1.17188,0.44922 -1.40625,0 -2.46093,-1.30859 -0.625,-0.78125 -1.66016,-2.92969 -1.03516,-2.14844 -1.77734,-3.02734 -1.32813,-1.5625 -2.34375,-2.26563 -1.36719,-0.9375 -2.92969,-0.9375 v 8.04688 q 0,0.3125 0.41016,0.68359 0.35156,0.3125 0.72265,0.60547 0.23438,0.23437 0.23438,0.39062 0,0.23438 -0.42969,0.23438 -0.35156,0 -0.58594,-0.0195 -1.21094,-0.0977 -1.60156,-0.0977 -0.70313,0 -1.15234,0.0391 -0.42969,0.0391 -0.9961,0.0781 -0.46875,0 -0.46875,-0.23438 0,-0.11718 0.19531,-0.35156 0.48829,-0.39062 0.72266,-0.60547 0.44922,-0.39062 0.44922,-0.72265 v -20.89844 q 0,-0.56641 -0.0391,-0.89844 -0.0391,-0.33203 -0.46875,-0.27344 -0.21485,0.0391 -0.72266,0.39063 -0.50781,0.33203 -0.68359,0.39062 -0.29297,0.0977 -0.29297,-0.21484 0,-0.0977 0.11719,-0.27344 0.11718,-0.17578 1.07421,-1.09375 0.76172,-0.74219 1.21094,-1.1914 0.66406,-0.66407 1.44531,-1.58204 0.54688,-0.64453 0.70313,-0.76171 0.0391,-0.0391 0.11719,-0.0586 0.0586,-0.0195 0.0976,-0.0195 0.17578,0 0.17578,0.3125 -0.0976,0.625 -0.17578,1.5625 -0.0586,0.91797 -0.0586,1.95313 v 13.24218 q 1.17187,-0.42968 2.51953,-1.11328 1.85547,-0.9375 3.10547,-1.89453 1.38672,-1.09375 1.89453,-1.69922 0.80078,-0.97656 0.80078,-2.1289 0,-0.54688 -0.33203,-0.9375 -0.33203,-0.39063 -0.87891,-0.39063 -0.39062,0 -0.66406,0.23438 -0.27344,0.21484 -0.3125,0.50781 0,0.52734 -0.17578,0.52734 -0.0781,0 -0.21484,-0.0977 -0.3125,-0.17579 -0.54688,-0.54688 -0.23437,-0.39062 -0.23437,-0.85937 0,-0.97657 0.72265,-1.64063 0.72266,-0.66406 1.73828,-0.66406 1.15235,0 1.91407,0.89844 0.78125,0.89843 0.78125,2.10937 0,1.5625 -0.91797,2.92969 -0.76172,1.13281 -2.20703,2.1875 -0.87891,0.64453 -2.36328,1.5039 -1.77735,1.03516 -2.94922,1.46485 1.60156,0.3125 2.85156,0.83984 2.03125,0.83985 3.08594,2.12891 0.89843,1.09375 1.34765,2.36328 0.3711,1.03516 0.52735,2.5 0.15625,1.46484 0.21484,1.66016 0.23438,0.83984 0.80078,0.74218 0.13672,-0.0195 0.15625,-0.44922 0.0195,-0.44921 0.0391,-0.48828 0.17579,-0.66406 0.97657,-0.66406 0.5664,0 0.85937,0.37109 0.3125,0.3711 0.3125,0.91797 z"
         id="path4638"
         inkscape:connector-curvature="0"
         style="fill:#6600ff" />
      <path
         d="m 181.06411,849.31872 q 0,1.50391 -1.93359,2.51953 -1.75782,0.91797 -3.92579,0.91797 -1.91406,0 -3.35937,-0.3125 -1.42578,-0.3125 -2.77344,-0.625 -0.89844,-0.13672 -1.58203,-0.15625 -0.68359,-0.0391 -1.81641,-0.0391 v 7.69531 q 0.9961,0.21485 2.44141,0.3711 1.44531,0.13672 2.94922,0.13672 1.64062,0 2.55859,-0.3125 1.23047,-0.42969 1.23047,-1.38672 0,-0.52735 -0.21484,-0.74219 -0.21485,-0.21484 -0.56641,-0.21484 -0.0976,0 -0.23437,0.0586 -0.13672,0.0391 -0.19532,0.0586 -0.11718,0.0391 -0.17578,0 -0.0781,-0.0586 -0.0195,-0.27343 0.0977,-0.44922 0.48828,-0.83985 0.41016,-0.41015 0.87891,-0.41015 0.83984,0 1.28906,0.5664 0.39063,0.50781 0.39063,1.3086 0,1.69921 -2.12891,2.91015 -1.95312,1.11328 -4.27734,1.11328 -2.34375,0 -4.41407,-0.46875 v 14.25782 q 0,0.37109 0.58594,0.82031 0.78125,0.60547 0.82031,0.66406 0.0391,0.0391 0.0586,0.11719 0.0195,0.0586 0.0195,0.0976 0,0.21485 -0.35156,0.21485 -0.19532,0.0195 -1.17188,-0.0391 -0.95703,-0.0781 -1.32812,-0.0781 -0.625,0 -1.875,0.0977 -0.46875,0.0391 -0.66407,0.0195 -0.33203,0 -0.33203,-0.23438 0,-0.0977 0.0586,-0.15625 0.0586,-0.0781 0.83984,-0.68359 0.60547,-0.46875 0.60547,-0.83984 v -14.49219 q -1.28906,0 -2.20703,0.41015 -1.11328,0.48829 -1.11328,1.38672 0,0.48828 0.0976,0.82032 0.11719,0.33203 0.41016,0.625 0.0977,0.0977 0.0977,0.17578 0,0.13672 -0.17579,0.13672 -0.44921,0.11718 -1.03515,-0.33204 -0.6836,-0.52734 -0.6836,-1.42578 0,-1.58203 1.48438,-2.55859 1.32812,-0.87891 3.125,-0.87891 v -7.30468 q -0.35156,0.0391 -0.70313,0.15625 -1.07421,0.37109 -1.91406,1.28906 -0.68359,0.78125 -0.9375,1.54297 -0.15625,0.48828 -0.15625,1.07422 0,0.15625 0,0.23437 0,0.25391 -0.13672,0.25391 -0.0781,0 -0.17578,-0.0977 -0.17578,-0.21484 -0.33203,-0.68359 -0.13672,-0.46875 -0.13672,-0.91797 0,-1.07422 0.91797,-2.20703 0.99609,-1.21094 2.67578,-2.01172 1.28906,-0.60547 2.92969,-0.89844 1.64062,-0.3125 3.39844,-0.3125 1.48437,0 3.0664,0.41016 1.58203,0.41015 3.16407,0.82031 1.58203,0.41016 2.7539,0.41016 0.91797,0 1.52344,-0.3125 0.74219,-0.39063 0.74219,-1.13282 0,-0.48828 -0.27344,-0.70312 -0.27344,-0.23438 -0.50781,-0.11719 -0.27344,0.11719 -0.35157,0.11719 -0.13671,0 -0.0781,-0.19531 0.11719,-0.39063 0.39062,-0.6836 0.3711,-0.41015 0.82032,-0.41015 0.74218,0 1.09375,0.48828 0.35156,0.46875 0.35156,1.1914 z"
         id="path4640"
         inkscape:connector-curvature="0"
         style="fill:#6600ff" />
    </g>
    <text
       xml:space="preserve"
       style="font-style:normal;font-weight:normal;font-size:10.58333302px;line-height:1.25;font-family:sans-serif;letter-spacing:0px;word-spacing:0px;fill:#000000;fill-opacity:1;stroke:none;stroke-width:0.26458332"
       x="81.64286"
       y="249.375"
       id="text4636"><tspan
         sodipodi:role="line"
         id="tspan4634"
         x="81.64286"
         y="259.03049"
         style="stroke-width:0.26458332"></tspan></text>
  </g>
</svg>
